<?xml version="1.0" standalone="no"?>
<!DOCTYPE svg PUBLIC "-//W3C//DTD SVG 20010904//EN"
 "http://www.w3.org/TR/2001/REC-SVG-20010904/DTD/svg10.dtd">
<svg version="1.0" xmlns="http://www.w3.org/2000/svg"
 width="512.000000pt" height="512.000000pt" viewBox="0 0 512.000000 512.000000"
 preserveAspectRatio="xMidYMid meet">
<metadata>
Created by potrace 1.11, written by Peter Selinger 2001-2013
</metadata>
<g transform="translate(0.000000,512.000000) scale(0.100000,-0.100000)"
fill="#000000" stroke="none">
<path d="M3090 4580 c0 -6 -27 -10 -60 -10 -33 0 -60 -4 -60 -10 0 -5 -11 -10
-25 -10 -14 0 -25 -4 -25 -10 0 -5 -9 -10 -20 -10 -11 0 -20 -4 -20 -10 0 -5
-7 -10 -16 -10 -19 0 -54 -37 -54 -57 0 -9 16 -13 55 -13 30 0 55 -3 55 -6 0
-16 -33 -34 -64 -34 -20 0 -36 -4 -36 -10 0 -5 -7 -10 -15 -10 -8 0 -15 -4
-15 -10 0 -5 -9 -10 -20 -10 -11 0 -20 -4 -20 -10 0 -5 -13 -10 -30 -10 -30 0
-41 -14 -17 -23 6 -2 -18 -2 -54 1 -54 4 -69 1 -80 -12 -8 -10 -29 -32 -46
-51 -18 -19 -33 -41 -33 -50 0 -8 -4 -15 -10 -15 -5 0 -10 -7 -10 -15 0 -8 -4
-15 -10 -15 -5 0 -10 -9 -10 -19 0 -11 -4 -21 -10 -23 -5 -1 -11 -33 -12 -69
-2 -83 11 -99 79 -99 37 0 52 5 63 20 8 11 21 20 28 20 8 0 26 13 41 29 14 15
36 31 49 35 12 4 22 12 22 17 0 5 9 9 20 9 11 0 20 5 20 10 0 6 9 10 20 10 11
0 20 5 20 10 0 6 11 10 25 10 14 0 25 5 25 10 0 6 27 10 60 10 33 0 60 -4 60
-10 0 -5 7 -10 15 -10 8 0 15 -4 15 -10 0 -6 35 -10 85 -10 50 0 85 4 85 10 0
6 16 10 35 10 19 0 35 5 35 10 0 15 29 12 46 -4 8 -8 14 -22 14 -30 0 -9 5
-16 10 -16 6 0 10 -11 10 -25 0 -14 5 -25 10 -25 6 0 10 -22 10 -50 0 -27 5
-50 10 -50 6 0 10 -20 10 -45 0 -25 -4 -45 -10 -45 -6 0 -10 -32 -10 -75 0
-43 -4 -75 -10 -75 -5 0 -10 -16 -10 -35 0 -19 -4 -35 -10 -35 -5 0 -10 -18
-10 -40 0 -22 -4 -40 -10 -40 -5 0 -10 -11 -10 -25 0 -14 -4 -25 -10 -25 -5 0
-10 -13 -10 -30 0 -16 -4 -30 -9 -30 -5 0 -12 -16 -15 -35 -4 -19 -11 -35 -16
-35 -6 0 -10 -9 -10 -20 0 -11 -4 -20 -10 -20 -5 0 -10 -9 -10 -20 0 -11 -4
-20 -10 -20 -5 0 -10 -9 -10 -19 0 -11 -9 -23 -20 -26 -11 -3 -20 -15 -20 -26
0 -10 -4 -19 -10 -19 -5 0 -10 -9 -10 -19 0 -11 -7 -26 -15 -35 -8 -8 -15 -18
-15 -23 0 -5 -9 -15 -20 -23 -11 -8 -20 -21 -20 -28 0 -8 -13 -27 -30 -42 -16
-15 -30 -33 -30 -39 0 -6 -16 -26 -35 -45 -19 -20 -35 -40 -35 -47 0 -13 -58
-69 -71 -69 -5 0 -12 -12 -15 -27 -4 -15 -25 -44 -46 -65 -21 -20 -38 -39 -38
-43 0 -3 -11 -17 -25 -31 -14 -14 -25 -33 -25 -42 0 -10 -9 -24 -20 -32 -11
-8 -20 -20 -20 -27 0 -17 -48 -17 -65 0 -7 7 -16 41 -20 75 -4 34 -11 62 -16
62 -5 0 -9 11 -9 25 0 14 -4 25 -10 25 -5 0 -10 9 -10 20 0 11 -4 20 -10 20
-5 0 -10 9 -10 20 0 11 -4 20 -10 20 -5 0 -10 6 -10 13 0 7 -9 19 -20 27 -11
8 -20 22 -20 32 0 9 -16 33 -35 52 -19 20 -35 38 -35 41 0 3 -15 21 -32 39
-18 18 -40 43 -48 55 -8 11 -22 21 -32 21 -9 0 -33 16 -52 35 -20 19 -39 35
-43 35 -5 0 -15 9 -23 20 -8 11 -20 20 -28 20 -7 0 -20 7 -28 15 -9 8 -24 15
-34 15 -10 0 -22 9 -25 20 -3 11 -13 20 -21 20 -19 0 -174 155 -174 175 0 8
-4 15 -10 15 -5 0 -10 20 -10 45 0 25 5 45 10 45 6 0 10 14 10 30 0 17 5 30
10 30 6 0 10 7 10 15 0 8 5 15 10 15 6 0 10 13 10 29 0 16 5 31 11 33 7 2 13
47 17 121 2 64 9 117 13 117 5 0 9 34 9 75 0 43 4 75 10 75 6 0 10 14 10 30 0
17 5 30 10 30 6 0 10 11 10 25 0 14 5 25 10 25 6 0 10 9 10 20 0 11 5 20 10
20 6 0 10 9 10 20 0 11 4 20 9 20 5 0 12 11 15 25 4 14 11 25 16 25 6 0 10 7
10 16 0 9 14 29 30 44 17 15 30 32 30 37 0 5 9 15 20 23 26 19 25 36 -5 65
-22 22 -32 25 -105 25 -47 0 -80 -4 -80 -10 0 -5 -9 -10 -20 -10 -11 0 -20 -4
-20 -10 0 -5 -7 -10 -15 -10 -8 0 -15 -4 -15 -10 0 -5 -7 -10 -15 -10 -9 0
-27 -10 -40 -22 -13 -13 -31 -29 -40 -36 -22 -19 -18 -32 10 -32 14 0 25 -4
25 -10 0 -5 -9 -10 -20 -10 -11 0 -20 -6 -20 -12 0 -9 -3 -9 -9 1 -7 11 -14 9
-35 -12 -14 -14 -26 -30 -26 -34 0 -5 -9 -15 -20 -23 -11 -8 -20 -22 -20 -32
0 -10 -4 -18 -10 -18 -5 0 -10 -9 -10 -20 0 -11 -4 -20 -10 -20 -5 0 -10 -7
-10 -15 0 -8 -7 -15 -15 -15 -8 0 -15 -8 -15 -18 0 -10 -9 -24 -20 -32 -11 -8
-20 -21 -20 -30 0 -9 -10 -22 -21 -30 -38 -27 -69 -64 -69 -85 0 -8 -4 -15
-10 -15 -5 0 -10 -9 -10 -20 0 -11 -4 -20 -10 -20 -5 0 -10 -11 -10 -25 0 -14
-4 -25 -10 -25 -6 0 -10 -47 -10 -120 0 -73 4 -120 10 -120 6 0 10 -18 10 -40
0 -22 5 -40 10 -40 6 0 10 -16 10 -35 0 -19 5 -35 10 -35 6 0 10 -9 10 -20 0
-11 4 -20 9 -20 4 0 11 -18 14 -41 3 -23 14 -48 26 -58 12 -10 21 -26 21 -35
0 -9 5 -16 10 -16 6 0 10 -8 10 -18 0 -10 10 -24 21 -32 35 -24 69 -64 69 -80
0 -15 25 -40 40 -40 11 0 24 -10 65 -47 13 -13 28 -23 32 -23 5 0 15 -9 23
-20 8 -11 21 -20 29 -20 7 0 21 -8 30 -19 9 -10 26 -21 39 -25 12 -4 22 -12
22 -17 0 -5 7 -9 16 -9 9 0 29 -13 44 -30 15 -16 31 -30 34 -30 18 0 206 -192
206 -210 0 -5 5 -10 10 -10 6 0 10 -9 10 -20 0 -11 5 -20 10 -20 6 0 10 -28
10 -65 l0 -65 -30 0 c-16 0 -30 -3 -30 -6 0 -11 29 -34 44 -34 10 0 16 -9 16
-25 0 -24 -3 -25 -55 -25 -30 0 -55 -4 -55 -10 0 -6 -50 -10 -130 -10 -80 0
-130 -4 -130 -10 0 -6 -63 -10 -170 -10 -107 0 -170 -4 -170 -10 0 -6 -32 -10
-75 -10 -43 0 -75 4 -75 10 0 6 -16 10 -35 10 -19 0 -35 5 -35 10 0 6 -22 10
-50 10 -27 0 -50 5 -50 10 0 6 -20 10 -45 10 -25 0 -45 4 -45 9 0 4 -37 11
-82 14 -46 4 -84 11 -86 17 -5 13 -32 13 -32 0 0 -5 7 -10 15 -10 8 0 15 -7
15 -15 0 -8 -7 -15 -15 -15 -8 0 -15 5 -15 10 0 6 -10 10 -22 11 -13 0 -17 3
-10 6 23 9 12 23 -18 23 -16 0 -30 -4 -30 -10 0 -5 5 -10 10 -10 7 0 10 -257
10 -750 0 -493 3 -750 10 -750 15 0 12 -57 -2 -63 -10 -4 -9 -8 2 -16 13 -10
13 -12 0 -22 -11 -8 -12 -12 -2 -16 9 -4 12 -96 12 -414 l0 -409 1665 0 1665
0 0 340 c0 220 4 340 10 340 7 0 10 142 10 405 0 263 3 405 10 405 7 0 10 143
10 410 0 267 3 410 10 410 17 0 13 179 -4 196 -17 16 -156 20 -156 4 0 -6 -57
-10 -150 -10 -93 0 -150 -4 -150 -10 0 -6 -62 -10 -165 -10 -103 0 -165 -4
-165 -10 0 -6 -70 -10 -190 -10 -189 0 -191 0 -215 25 -25 24 -33 55 -15 55 6
0 10 7 10 15 0 8 4 15 9 15 5 0 12 17 16 38 3 21 15 45 26 52 10 8 19 19 19
25 0 6 9 17 20 25 11 8 20 21 20 30 0 9 9 22 20 30 11 8 20 23 20 33 0 9 7 20
15 23 8 4 15 14 15 23 0 9 9 23 20 31 11 8 20 21 20 30 0 9 9 22 20 30 11 8
20 18 20 23 0 5 7 15 15 23 8 9 15 24 15 35 0 10 5 19 10 19 6 0 10 8 10 18 0
10 9 24 20 32 11 8 20 20 20 27 0 7 5 13 10 13 6 0 10 9 10 20 0 11 5 20 10
20 6 0 10 9 10 20 0 11 5 20 10 20 6 0 10 7 10 15 0 8 4 15 9 15 5 0 12 18 16
40 4 22 11 40 16 40 5 0 9 9 9 20 0 11 5 20 10 20 6 0 10 11 10 25 0 14 5 25
10 25 6 0 10 14 10 30 0 17 5 30 10 30 6 0 10 9 10 20 0 11 5 20 10 20 6 0 10
16 10 35 0 19 4 35 9 35 5 0 12 34 16 75 4 41 11 75 16 75 5 0 9 74 9 165 0
91 -4 165 -9 165 -4 0 -11 28 -15 63 -3 34 -11 64 -16 65 -6 2 -10 12 -10 23
0 10 -4 19 -10 19 -5 0 -10 9 -10 20 0 11 -4 20 -10 20 -5 0 -10 9 -10 19 0
11 -9 23 -20 26 -11 3 -20 13 -20 21 0 17 -11 31 -57 77 -62 61 -82 77 -98 77
-8 0 -15 5 -15 10 0 6 -7 10 -15 10 -8 0 -15 5 -15 10 0 6 -9 10 -20 10 -11 0
-20 5 -20 10 0 6 -13 10 -30 10 -16 0 -30 5 -30 10 0 6 -25 10 -55 10 -30 0
-55 5 -55 10 0 6 -7 10 -15 10 -8 0 -15 -4 -15 -10z"/>
</g>
</svg>
